<svg width="1171" height="393" viewBox="0 0 1171 393" fill="none" xmlns="http://www.w3.org/2000/svg">
<path d="M1085.2 377.4H1170.5V42.7C1170.5 42.6 1170.5 42.6 1170.5 42.5C1170.5 41.9 1170.5 41.2 1170.5 40.6C1170.5 40.2 1170.4 39.9 1170.4 39.5C1170.4 39.2 1170.4 38.8 1170.3 38.5C1170.3 38.1 1170.2 37.6 1170.1 37.2C1170.1 36.9 1170 36.7 1170 36.4C1169.9 35.9 1169.9 35.5 1169.8 35C1169.8 34.8 1169.7 34.6 1169.7 34.3C1169.6 33.8 1169.5 33.4 1169.4 32.9C1169.3 32.7 1169.3 32.5 1169.2 32.2C1169.1 31.8 1169 31.3 1168.8 30.9C1168.7 30.7 1168.7 30.4 1168.6 30.2C1168.5 29.8 1168.3 29.4 1168.2 29C1168.1 28.7 1168 28.5 1167.9 28.2C1167.8 27.8 1167.6 27.5 1167.5 27.1C1167.4 26.8 1167.3 26.5 1167.1 26.2C1167 25.9 1166.8 25.6 1166.7 25.3C1166.6 25 1166.4 24.6 1166.2 24.3C1166.1 24 1165.9 23.8 1165.8 23.5C1165.6 23.1 1165.4 22.8 1165.2 22.4C1165.1 22.2 1164.9 21.9 1164.8 21.7C1164.6 21.3 1164.4 20.9 1164.2 20.6C1164.1 20.4 1163.9 20.2 1163.8 20C1163.6 19.6 1163.3 19.2 1163.1 18.9C1163 18.7 1162.8 18.5 1162.7 18.3C1162.5 17.9 1162.2 17.6 1161.9 17.2C1161.7 17 1161.5 16.7 1161.4 16.5C1161.2 16.2 1160.9 15.9 1160.7 15.6C1160.4 15.3 1160.2 15 1159.9 14.7C1159.7 14.5 1159.5 14.3 1159.3 14C1158.4 13 1157.3 12 1156.3 11C1156.1 10.8 1155.9 10.6 1155.6 10.4C1155.3 10.1 1155 9.9 1154.7 9.6C1154.4 9.4 1154.1 9.1 1153.8 8.9C1153.6 8.7 1153.3 8.5 1153.1 8.4C1152.7 8.1 1152.4 7.9 1152 7.6C1151.8 7.5 1151.6 7.3 1151.4 7.2C1151 7 1150.7 6.7 1150.3 6.5C1150.1 6.4 1149.9 6.2 1149.7 6.1C1149.3 5.9 1149 5.7 1148.6 5.5C1148.4 5.4 1148.1 5.2 1147.9 5.1C1147.5 4.9 1147.2 4.7 1146.8 4.5C1146.5 4.4 1146.3 4.2 1146 4.1C1145.7 3.9 1145.3 3.8 1145 3.7C1144.7 3.6 1144.4 3.4 1144.1 3.3C1143.8 3.2 1143.5 3.1 1143.2 3C1142.8 2.9 1142.5 2.7 1142.1 2.6C1141.8 2.5 1141.6 2.4 1141.3 2.3C1140.9 2.2 1140.5 2 1140.1 1.9C1139.9 1.8 1139.6 1.8 1139.4 1.7C1139 1.6 1138.5 1.5 1138.1 1.3C1137.9 1.2 1137.7 1.2 1137.5 1.2C1137 1.1 1136.6 1 1136.1 0.9C1135.9 0.9 1135.7 0.8 1135.4 0.8C1134.9 0.7 1134.5 0.6 1134 0.6C1133.7 0.6 1133.5 0.5 1133.2 0.5C1132.8 0.4 1132.3 0.4 1131.9 0.3C1131.6 0.3 1131.2 0.2 1130.9 0.2C1130.5 0.2 1130.2 0.1 1129.8 0.1C1129.2 0.1 1128.5 0.1 1127.9 0.1C1127.8 0.1 1127.8 0.1 1127.7 0.1C1127.6 0.1 1127.6 0.1 1127.5 0.1C1126.9 0.1 1126.2 0.1 1125.6 0.1C1125.2 0.1 1124.9 0.2 1124.5 0.2C1124.2 0.2 1123.8 0.2 1123.5 0.3C1123.1 0.3 1122.6 0.4 1122.2 0.5C1121.9 0.5 1121.7 0.6 1121.4 0.6C1120.9 0.7 1120.5 0.7 1120 0.8C1119.8 0.8 1119.6 0.9 1119.3 0.9C1118.8 1 1118.4 1.1 1117.9 1.2C1117.7 1.3 1117.5 1.3 1117.2 1.4C1116.8 1.5 1116.3 1.6 1115.9 1.8C1115.7 1.9 1115.4 1.9 1115.2 2C1114.8 2.1 1114.4 2.3 1114 2.4C1113.7 2.5 1113.5 2.6 1113.2 2.7C1112.8 2.8 1112.5 3 1112.1 3.1C1111.8 3.2 1111.5 3.3 1111.2 3.5C1110.9 3.6 1110.6 3.8 1110.3 3.9C1110 4 1109.6 4.2 1109.3 4.4C1109 4.5 1108.8 4.7 1108.5 4.8C1108.1 5 1107.8 5.2 1107.4 5.4C1107.2 5.5 1106.9 5.7 1106.7 5.8C1106.3 6 1105.9 6.2 1105.6 6.5C1105.4 6.6 1105.2 6.8 1105 6.9C1104.6 7.1 1104.2 7.4 1103.9 7.6C1103.7 7.7 1103.5 7.9 1103.3 8C1102.9 8.3 1102.6 8.5 1102.2 8.8C1102 9 1101.7 9.2 1101.5 9.3C1101.2 9.5 1100.9 9.8 1100.6 10C1100.3 10.3 1100 10.5 1099.7 10.8C1099.5 11 1099.3 11.2 1099 11.4C1098.5 11.9 1098 12.4 1097.4 12.9L823.1 287.1L781.5 237.7L826.1 193.1C842.9 176.3 853.8 155.5 857.7 132.7C861.4 111.6 858.9 89.9 850.6 69.8C842.3 49.7 828.7 32.6 811.2 20.3C792.3 7 769.7 0 746 0H453.7C430.1 0 411 19.1 411 42.7C411 66.3 430.1 85.4 453.7 85.4H746C762.8 85.4 769.6 97.4 771.7 102.6C773.8 107.8 777.5 121.1 765.7 132.9L693.4 205.2C677.7 220.9 676.7 245.9 691 262.9L787.5 377.3C795.9 387.3 808 392.5 820.1 392.5C820.2 392.5 820.4 392.5 820.5 392.5C820.6 392.5 820.7 392.5 820.8 392.5C831.7 392.5 842.6 388.3 851 380L1085.2 145.8V377.4Z" fill="white"/>
<path d="M259.6 0H1.2H0V21.3V42.6V64V85.3H1.2H156.7C118.7 123.3 80.8 161.2 42.8 199.2C33.1 208.9 24.8 220.8 18.9 234C13 247.2 10 261.6 9.5 275.9C9 299.2 15.6 322.1 28.2 341.4C34.5 351 42.3 359.8 51.3 367.2C60.4 374.6 70.7 380.6 81.7 384.8C95 389.9 109.1 392.3 122.7 392.3H462.4H463.6V371V349.7V328.4V307H462.4H122.8C118.8 307 115.4 306.3 112.4 305.1C109.9 304.1 107.5 302.8 105.4 301.1C103.3 299.4 101.3 297.2 99.7 294.7C96.5 289.7 94.7 283.6 94.8 278C94.9 277.6 94.9 277.2 94.9 276.7C94.9 276.5 94.9 276.3 94.9 276.1L95 275.5C95.1 275.1 95.1 274.7 95.1 274.3C95.2 273.9 95.3 273.5 95.4 273.1C95.5 272.3 95.9 271.5 96 270.7C96.1 270.3 96.3 269.9 96.4 269.5C96.6 269.1 96.6 268.7 96.9 268.3C98.3 265.3 100.2 262.4 103 259.5C165.2 197.3 227.5 135 289.7 72.8C297.4 65.1 302.2 54.4 302.2 42.6C302.3 19.1 283.2 0 259.6 0Z" fill="white"/>
</svg>
